<svg viewBox="0 0 128 128" xmlns="http://www.w3.org/2000/svg"><rect width="100%" height="100%" fill="#343041"/><path d="M49.152 16c-22.656 0-33.92 9.216-33.92 21.888 0 7.68 5.12 12.8 13.44 12.8 6.528 0 9.728-4.096 9.728-7.168 0-.768-.128-1.152-.128-1.152s-.768.384-2.176.384c-3.2 0-5.12-2.304-5.12-5.888 0-7.296 6.272-13.824 17.92-13.824 4.864 0 6.656.512 10.624 1.28 0 0-.128 1.92-.64 4.992L46.848 98.048c-1.664 9.856.128 13.952 9.6 13.952 5.248 0 7.296-1.28 7.296-1.28s-1.408-3.2.128-12.16l12.16-69.76c7.424 2.304 12.16 4.352 21.248 4.352 11.136 0 15.488-5.376 15.488-12.032 0-2.048-.768-3.584-1.408-4.224 0 0-4.608 2.048-12.032 2.048C73.984 18.944 63.872 16 49.152 16Z" fill="#fff"/></svg>